<svg xmlns="http://www.w3.org/2000/svg" xmlns:xlink="http://www.w3.org/1999/xlink" viewBox="0 0 142.36 171.32"><defs><style>.cls-1{stroke:#ffc66a;stroke-miterlimit:10;fill:url(#linear-gradient);}</style><linearGradient id="linear-gradient" x1="71.18" y1="170.82" x2="71.18" y2="0.5" gradientUnits="userSpaceOnUse"><stop offset="0" stop-color="#fb7b7e"/><stop offset="0.58" stop-color="#ffc66a"/></linearGradient></defs><title>flame_1</title><g id="Layer_2" data-name="Layer 2"><g id="text"><path class="cls-1" d="M45.47,166.82s-12-7-9-26,18-30,36-30,32,16,33,30-3,20-7,26,3,3,3,3,16-8,26-21,16-31,14-49-15-41-29-50-9,6-9,6l-2,16s-4,10-8,0,4-21-10-45-32-26-32-26-5-2-3,4,7,17-6,31-37,44-41,62,5,40,15,52,26,21,26,21S49.47,170.82,45.47,166.82Z"/></g></g></svg>